<svg width="145" height="28" xmlns="http://www.w3.org/2000/svg" xmlns:xlink="http://www.w3.org/1999/xlink" xml:space="preserve" overflow="hidden"><defs><clipPath id="clip0"><rect x="1049" y="445" width="144" height="27"/></clipPath><clipPath id="clip1"><rect x="1049" y="445" width="144" height="27"/></clipPath><clipPath id="clip2"><rect x="1049" y="445" width="144" height="27"/></clipPath><linearGradient x1="48.4284" y1="344.63" x2="60.1737" y2="331.301" gradientUnits="userSpaceOnUse" spreadMethod="pad" id="fill3"><stop offset="0" stop-color="#80CC28" stop-opacity="1"/><stop offset="0.514157" stop-color="#80CC28" stop-opacity="1"/><stop offset="0.926518" stop-color="#4F7E17" stop-opacity="1"/><stop offset="0.975662" stop-color="#4F7E17" stop-opacity="1"/><stop offset="1" stop-color="#4F7E17" stop-opacity="1"/></linearGradient><linearGradient x1="58.9954" y1="350.992" x2="51.4782" y2="343.963" gradientUnits="userSpaceOnUse" spreadMethod="pad" id="fill4"><stop offset="0" stop-color="#80CC28" stop-opacity="1"/><stop offset="0.750345" stop-color="#80CC28" stop-opacity="1"/><stop offset="0.939002" stop-color="#4F7E17" stop-opacity="1"/><stop offset="0.979797" stop-color="#4F7E17" stop-opacity="1"/><stop offset="1" stop-color="#4F7E17" stop-opacity="1"/></linearGradient><linearGradient x1="44.026" y1="346.083" x2="48.7978" y2="350.213" gradientUnits="userSpaceOnUse" spreadMethod="pad" id="fill5"><stop offset="0" stop-color="#2056AE" stop-opacity="1"/><stop offset="0.550584" stop-color="#2056AE" stop-opacity="1"/><stop offset="1" stop-color="#102D5D" stop-opacity="1"/></linearGradient><linearGradient x1="51.3209" y1="349.23" x2="44.6727" y2="356.85" gradientUnits="userSpaceOnUse" spreadMethod="pad" id="fill6"><stop offset="0" stop-color="#2056AE" stop-opacity="1"/><stop offset="0.550584" stop-color="#2056AE" stop-opacity="1"/><stop offset="1" stop-color="#102D5D" stop-opacity="1"/></linearGradient></defs><g transform="translate(-1048 -444)"><g><g clip-path="url(#clip0)"><g clip-path="url(#clip1)"><g clip-path="url(#clip2)"><path d="M0 0 0.585306 0-0.760898-1.37672 0.712873-2.91202 0.100553-2.91202-1.19062-1.5363-1.19062-2.61687-1.18912-2.76295C-1.18712-2.81797-1.18362-2.8675-1.17812-2.91202L-1.66787-2.91202C-1.65657-2.76338-1.6509-2.61436-1.65086-2.46529L-1.65086-0.448235C-1.65086-0.380199-1.65086-0.312664-1.65287-0.245629-1.65548-0.163624-1.66048-0.0817128-1.66787 1.6698e-09L-1.17812 5.55401e-17C-1.18379-0.0520337-1.18746-0.104266-1.18912-0.156582L-1.19062-0.303659-1.19062-1.22014Z" fill="#656263" fill-rule="nonzero" fill-opacity="1" transform="matrix(1.01547 0 0 -1 1089.87 469.025)"/><path d="M0 0C0-0.121063 0.0120063-0.245629 0.0375196-0.377197 0.063033-0.508266 0.106556-0.626828 0.168588-0.733884 0.227619-0.84094 0.309162-0.928986 0.413717-1.00002 0.517271-1.06956 0.64984-1.10558 0.810424-1.10558 0.962004-1.10558 1.08907-1.07406 1.19212-1.01053 1.29418-0.946996 1.37772-0.863452 1.44276-0.759398 1.50479-0.654843 1.54981-0.536781 1.57833-0.404712 1.63354-0.145383 1.63422 0.122593 1.58033 0.3822 1.55331 0.513269 1.50979 0.632331 1.44726 0.738887 1.38644 0.844847 1.30098 0.934594 1.19813 1.00052 1.09457 1.06856 0.965005 1.10258 0.810424 1.10258 0.658345 1.10258 0.531278 1.06956 0.427724 1.00503 0.327382 0.942138 0.242967 0.856869 0.181095 0.755896 0.114323 0.646724 0.0672497 0.526671 0.042022 0.40121 0.0140163 0.269312-6.81677e-05 0.134839 1.06152e-08 2.29002e-08M-0.472747 0C-0.470246 0.198104-0.443732 0.385202-0.392706 0.566296-0.342179 0.746391-0.262637 0.906474-0.156082 1.04755-0.0525275 1.18512 0.0800419 1.29518 0.240126 1.37872 0.400209 1.46126 0.590309 1.50279 0.810424 1.50279 1.01853 1.50279 1.20213 1.46327 1.36071 1.38523 1.51735 1.30796 1.65489 1.1969 1.76342 1.06005 1.87148 0.922483 1.95202 0.762399 2.00705 0.581304 2.06251 0.392567 2.08999 0.196713 2.08859-2.95794e-08 2.08859-0.1906 2.06358-0.376197 2.01305-0.555791 1.96578-0.729372 1.88711-0.892817 1.78093-1.03804 1.67608-1.17981 1.54044-1.29594 1.38422-1.37772 1.22364-1.46377 1.03204-1.50579 0.810424-1.50579 0.599314-1.50579 0.414217-1.46577 0.254633-1.38623 0.0989488-1.30834-0.037295-1.19654-0.144075-1.05905-0.256353-0.917215-0.340104-0.75498-0.390705-0.581304-0.446206-0.392563-0.473845-0.196729-0.472747 8.92152e-08" fill="#656263" fill-rule="nonzero" fill-opacity="1" transform="matrix(1.01547 0 0 -1 1091.87 470.482)"/><path d="M0 0 0.427224 0C0.513769 0 0.594311 0.00850445 0.66785 0.0275144 0.740888 0.0455238 0.804421 0.0740388 0.857949 0.113059 0.910111 0.149664 0.953369 0.197538 0.984515 0.253132 1.01632 0.314047 1.03216 0.382035 1.03054 0.450736 1.03054 0.578303 0.985016 0.675854 0.893968 0.742389 0.80242 0.809924 0.660846 0.843942 0.469246 0.843942L0 0.843942ZM-0.463743 0.864953C-0.463743 0.989018-0.468245 1.11308-0.475749 1.23665L0.346681 1.23665C0.493758 1.23665 0.635333 1.22714 0.775406 1.20913 0.914479 1.19012 1.03904 1.1531 1.1486 1.09707 1.25516 1.04104 1.3412 0.961503 1.40624 0.85895 1.47027 0.755896 1.50279 0.620325 1.50279 0.450736 1.50279 0.350684 1.48778 0.261637 1.45676 0.185097 1.42837 0.112529 1.38528 0.0466162 1.3302-0.00850445 1.27648-0.0644467 1.21375-0.110954 1.1446-0.146076 1.07297-0.181446 0.997862-0.209277 0.920482-0.22912 0.977512-0.256634 1.02804-0.291653 1.07506-0.331674 1.12209-0.371695 1.16111-0.427224 1.19513-0.494759 1.29368-0.68836 1.38422-0.884463 1.46777-1.08257 1.55081-1.28117 1.63686-1.47877 1.7269-1.67538L1.19963-1.67538C1.12609-1.50729 1.05555-1.3387 0.986016-1.17111 0.91698-1.00403 0.843441-0.835437 0.7649-0.667349 0.739982-0.612466 0.707846-0.561154 0.66935-0.514769 0.641056-0.481428 0.606127-0.45434 0.566797-0.435228 0.528031-0.418149 0.486522-0.408153 0.444233-0.405712 0.397768-0.402769 0.351216-0.401434 0.304659-0.40171L0-0.40171 0-1.41374C0.000205284-1.50103 0.0032084-1.58828 0.00900471-1.67538L-0.475749-1.67538C-0.470746-1.60784-0.467245-1.5358-0.465244-1.45626L-0.463743-1.22864Z" fill="#656263" fill-rule="nonzero" fill-opacity="1" transform="matrix(1.01547 0 0 -1 1095.96 470.262)"/><path d="M0 0 1.08407 0C1.11508 0 1.1536 0.00100052 1.20013 0.00200105 1.23899 0.00324498 1.27774 0.00675273 1.31619 0.0125065L1.31619-0.413216C1.17311-0.404712 1.04355-0.400209 0.927485-0.400209L-0.472747-0.400209C-0.467745-0.335676-0.463743-0.261637-0.462242-0.179094L-0.460741 0.0465244-0.460741 2.14012C-0.460741 2.20165-0.461742 2.26419-0.465244 2.32772-0.467745 2.39125-0.471747 2.45278-0.47725 2.51181L1.07556 2.51181C1.10358 2.51181 1.1406 2.51181 1.18562 2.51382 1.23014 2.51482 1.26816 2.51832 1.29968 2.52432L1.29968 2.0976C1.24565 2.1031 1.17962 2.1061 1.10058 2.1086 1.02203 2.1096 0.953499 2.1106 0.894468 2.1106L0 2.1106 0 1.30868 0.97451 1.30868C1.00303 1.30868 1.03804 1.30868 1.08207 1.31119 1.12609 1.31169 1.16311 1.31519 1.19413 1.32169L1.19413 0.894968C1.06771 0.902928 0.941088 0.9071 0.814426 0.907475L0 0.907475Z" fill="#656263" fill-rule="nonzero" fill-opacity="1" transform="matrix(1.01547 0 0 -1 1099.52 471.536)"/><path d="M0 0-0.456739 1.3377-0.920982 0ZM0.13407-0.388703-1.05105-0.388703-1.30468-1.10958-1.79394-1.10958-0.738887 1.80244-0.173591 1.80244 0.881461-1.10958 0.391705-1.10958Z" fill="#656263" fill-rule="nonzero" fill-opacity="1" transform="matrix(1.01547 0 0 -1 1103.86 470.827)"/><path d="M0 0C0.00100052-0.0645338 0.00350183-0.113059 0.0065034-0.147077L-0.487255-0.147077C-0.481752-0.0795416-0.47825-0.00750393-0.47725 0.0720377-0.475249 0.150579-0.475249 0.226619-0.475249 0.299657L-0.475249 2.31721C-0.475249 2.38825-0.475249 2.46129-0.47725 2.53883-0.478271 2.61429-0.481608 2.68969-0.487255 2.76495L0.0065034 2.76495C0.0065034 2.74744 0.00600314 2.72493 0.00450236 2.69741 0.00291896 2.66926 0.00208489 2.64107 0.00200105 2.61287-0.000933354 2.58328-0.00243589 2.55356-0.00250131 2.52382L-0.00250131 0.156582C-0.00250131 0.116561-0.00150079 0.0645338 0 0" fill="#656263" fill-rule="nonzero" fill-opacity="1" transform="matrix(1.01547 0 0 -1 1108.61 471.789)"/><path d="M0 0-0.578303 1.06106C-0.578303 1.07456-0.588308 1.10258-0.609319 1.1436-0.626218 1.17588-0.643897 1.20773-0.662347 1.23915L-0.662347-0.718876-0.660846-0.888465C-0.658345-0.950998-0.656844-1.00603-0.654342-1.05705L-1.1396-1.05705C-1.13359-0.989518-1.13009-0.91698-1.12859-0.837939-1.12709-0.759398-1.12659-0.683358-1.12659-0.610319L-1.12659 1.40724C-1.12659 1.47827-1.12709 1.55131-1.12859 1.62885-1.13009 1.70589-1.13359 1.78093-1.1396 1.85497L-0.514769 1.85497 0.586307-0.196103C0.601315-0.228119 0.615822-0.260636 0.632831-0.295655L0.683858-0.399209 0.683858 1.40724C0.683428 1.55657 0.679095 1.70586 0.670851 1.85497L1.15661 1.85497C1.15053 1.7719 1.14769 1.68863 1.1481 1.60534L1.1481-0.924484C1.1481-0.965005 1.1506-1.00953 1.15661-1.05705L0.578303-1.05705C0.384201-0.703368 0.1916-0.350684 0 0" fill="#656263" fill-rule="nonzero" fill-opacity="1" transform="matrix(1.01547 0 0 -1 1111.39 470.88)"/><path d="M0 0C-0.00133246-0.149014 0.00283923-0.298027 0.0125065-0.446734L-0.489756-0.446734C-0.480752-0.385202-0.47675-0.313164-0.474748-0.231621-0.473248-0.150079-0.472247-0.0730382-0.472247 0L-0.472247 2.06408-1.10158 2.06408C-1.1411 2.06408-1.18562 2.06308-1.23715 2.06208-1.28346 2.06039-1.32969 2.05689-1.37572 2.05157L-1.37572 2.4783C-1.35275 2.47426-1.3295 2.47208-1.30618 2.47179-1.27667 2.46979-1.24665 2.46979-1.21514 2.46979-1.18412 2.46679-1.1546 2.46529-1.12459 2.46529L0.708871 2.46529C0.739887 2.46779 0.771404 2.46979 0.803921 2.46979 0.835647 2.46932 0.867334 2.47217 0.89847 2.4783L0.89847 2.05157C0.831435 2.05658 0.761899 2.06008 0.691862 2.06208 0.621825 2.06308 0.555291 2.06408 0.493258 2.06408L0 2.06408Z" fill="#656263" fill-rule="nonzero" fill-opacity="1" transform="matrix(1.01547 0 0 -1 1115.31 471.49)"/><path d="M0 0 1.08357 0C1.11558 0 1.1536 0.00100052 1.20063 0.00200105 1.24715 0.00400209 1.28567 0.00750393 1.31619 0.0125065L1.31619-0.413216C1.17311-0.404712 1.04405-0.400209 0.927986-0.400209L-0.472747-0.400209C-0.467745-0.335676-0.463743-0.261637-0.462242-0.179094L-0.460741 0.0465244-0.460741 2.14012C-0.460741 2.20165-0.461742 2.26419-0.465244 2.32772-0.467745 2.39125-0.471747 2.45278-0.47725 2.51181L1.07556 2.51181C1.10358 2.51181 1.1406 2.51181 1.18612 2.51382 1.23014 2.51482 1.26866 2.51832 1.29968 2.52432L1.29968 2.0976C1.24565 2.1031 1.17962 2.1061 1.10108 2.1086 1.02203 2.1096 0.953499 2.1106 0.894468 2.1106L0 2.1106 0 1.30868 0.97451 1.30868C1.00303 1.30868 1.03904 1.30868 1.08207 1.31119 1.12609 1.31169 1.16311 1.31519 1.19463 1.32169L1.19463 0.894968C1.05305 0.903473 0.926985 0.907475 0.814426 0.907475L0 0.907475Z" fill="#656263" fill-rule="nonzero" fill-opacity="1" transform="matrix(1.01547 0 0 -1 1118.06 471.536)"/><path d="M0 0 0.426223 0C0.512768 0 0.593811 0.00850445 0.667349 0.0275144 0.740388 0.0455238 0.80292 0.0740388 0.856949 0.113059 0.909356 0.149386 0.952669 0.197322 0.983515 0.253132 1.01573 0.313915 1.03175 0.381966 1.03004 0.450736 1.03004 0.578303 0.983515 0.675854 0.892467 0.742389 0.80192 0.809924 0.660346 0.843942 0.468745 0.843942L0 0.843942ZM-0.463743 0.864953C-0.463743 0.989018-0.468745 1.11308-0.47675 1.23665L0.346181 1.23665C0.492758 1.23665 0.634832 1.22714 0.774906 1.20913 0.913978 1.19012 1.03854 1.1531 1.1476 1.09707 1.25466 1.04104 1.3412 0.961503 1.40574 0.85895 1.46977 0.755896 1.50279 0.620325 1.50279 0.450736 1.50279 0.350684 1.48728 0.261637 1.45626 0.185097 1.42767 0.112754 1.38479 0.0469105 1.3302-0.00850445 1.27612-0.0644657 1.21305-0.110968 1.1436-0.146076 1.07197-0.181446 0.996862-0.209277 0.919481-0.22912 0.976511-0.256634 1.02754-0.291653 1.07356-0.331674 1.12109-0.371695 1.16111-0.427224 1.19463-0.494759 1.29268-0.68836 1.38372-0.884463 1.46677-1.08257 1.54981-1.28117 1.63636-1.47877 1.7259-1.67538L1.19863-1.67538C1.12556-1.50815 1.05452-1.34005 0.985516-1.17111 0.91648-1.00403 0.842941-0.835437 0.7634-0.667349 0.739007-0.612296 0.70701-0.560934 0.66835-0.514769 0.612631-0.447552 0.530518-0.407773 0.443232-0.405712 0.396768-0.402754 0.350216-0.40142 0.303659-0.40171L0-0.40171 0-1.41374C3.87522e-05-1.50102 0.00287502-1.58828 0.00850445-1.67538L-0.47675-1.67538C-0.471247-1.60784-0.467745-1.5358-0.465744-1.45626-0.465244-1.37772-0.463743-1.30168-0.463743-1.22864Z" fill="#656263" fill-rule="nonzero" fill-opacity="1" transform="matrix(1.01547 0 0 -1 1121.35 470.262)"/><path d="M0 0-0.577802 1.06106C-0.583265 1.09032-0.594121 1.11831-0.609819 1.1436-0.626193 1.17606-0.643712 1.20793-0.662347 1.23915L-0.662347-0.718876C-0.662347-0.769903-0.661346-0.825932-0.660346-0.888465-0.658845-0.950998-0.656344-1.00603-0.653842-1.05705L-1.1396-1.05705C-1.13359-0.989518-1.13009-0.91698-1.12809-0.837939L-1.12659-0.610319-1.12659 1.40724-1.12809 1.62885C-1.12985 1.70432-1.13369 1.77972-1.1396 1.85497L-0.514769 1.85497 0.586807-0.196103C0.600314-0.228119 0.615822-0.260636 0.633332-0.295655 0.64984-0.330673 0.666849-0.365691 0.683858-0.399209L0.683858 1.40724C0.683858 1.47827 0.682357 1.55131 0.681357 1.62885 0.680086 1.7043 0.676749 1.7797 0.671351 1.85497L1.15611 1.85497C1.15046 1.77188 1.14779 1.68862 1.1481 1.60534L1.1481-0.924484C1.1481-0.965005 1.1506-1.00953 1.15611-1.05705L0.577802-1.05705 0 0" fill="#656263" fill-rule="nonzero" fill-opacity="1" transform="matrix(1.01547 0 0 -1 1125.59 470.88)"/><path d="M0 0 1.08457 0C1.11508 0 1.1546 0.00100052 1.20113 0.00200105 1.24765 0.00400209 1.28617 0.00750393 1.31669 0.0125065L1.31669-0.413216C1.17361-0.404712 1.04455-0.400209 0.928986-0.400209L-0.472247-0.400209C-0.466744-0.335676-0.463242-0.261637-0.461742-0.179094-0.460241-0.0965505-0.460241-0.0215113-0.460241 0.0465244L-0.460241 2.14012C-0.459157 2.26424-0.464835 2.38831-0.47725 2.51181L1.07656 2.51181C1.10408 2.51181 1.1416 2.51181 1.18612 2.51382 1.23114 2.51482 1.26866 2.51832 1.30068 2.52432L1.30068 2.0976C1.23445 2.10346 1.16805 2.10713 1.10158 2.1086 1.02304 2.1096 0.953499 2.1106 0.894968 2.1106L0 2.1106 0 1.30868 0.975511 1.30868C1.00353 1.30868 1.03904 1.30868 1.08307 1.31119 1.12659 1.31169 1.16411 1.31519 1.19463 1.32169L1.19463 0.894968C1.05405 0.903473 0.927485 0.907475 0.814927 0.907475L0 0.907475Z" fill="#656263" fill-rule="nonzero" fill-opacity="1" transform="matrix(1.01547 0 0 -1 1128.86 471.536)"/><path d="M0 0C0-0.0700367 0.000500262-0.138573 0.00150079-0.204107 0.00300157-0.269641 0.00700367-0.351684 0.0125065-0.446734L-0.489756-0.446734C-0.481252-0.385202-0.47675-0.313164-0.474748-0.231621-0.473748-0.150079-0.472747-0.0730382-0.472747 0L-0.472747 2.06408-1.10208 2.06408C-1.1411 2.06408-1.18612 2.06308-1.23715 2.06208-1.28363 2.06039-1.33002 2.05689-1.37622 2.05157L-1.37622 2.4783C-1.35325 2.47431-1.33 2.47213-1.30668 2.47179-1.27667 2.46979-1.24665 2.46979-1.21564 2.46979-1.18462 2.46679-1.1551 2.46529-1.12509 2.46529L0.708871 2.46529C0.739387 2.46779 0.771404 2.46979 0.803921 2.46979 0.835647 2.46932 0.867334 2.47217 0.89847 2.4783L0.89847 2.05157C0.830935 2.05658 0.761899 2.06008 0.691862 2.06208 0.621325 2.06308 0.555291 2.06408 0.493758 2.06408L0 2.06408Z" fill="#656263" fill-rule="nonzero" fill-opacity="1" transform="matrix(1.01547 0 0 -1 1132.81 471.49)"/><path d="M0 0C0-0.0455238 0.00750393-0.0890466 0.023012-0.131569 0.0390204-0.173591 0.0595312-0.212611 0.084044-0.24913 0.109557-0.289151 0.138072-0.326171 0.168588-0.361189L0.257135-0.460741C0.294154-0.443732 0.336676-0.419219 0.383701-0.388703 0.432226-0.357687 0.47725-0.323169 0.519272-0.282648 0.561294-0.243628 0.596312-0.199104 0.624827-0.148078 0.652817-0.0975861 0.667294-0.0407206 0.666849 0.0170089 0.666849 0.141074 0.634332 0.227619 0.569798 0.278646 0.503313 0.329526 0.421365 0.356018 0.337677 0.353685 0.250514 0.35527 0.165979 0.323815 0.101053 0.265639 0.0335175 0.206608 0 0.117562 0 0M-0.321168-1.46877C-0.321168-1.62135-0.270141-1.74291-0.169088-1.83646-0.0680356-1.92851 0.0715374-1.97503 0.249631-1.97503 0.367192-1.97503 0.470746-1.95002 0.559793-1.89799 0.648339-1.84497 0.716875-1.78644 0.7634-1.7219L0.0975511-0.919982C0.0449057-0.953644-0.00729282-0.987997-0.0590309-1.02304-0.107224-1.05632-0.151085-1.09547-0.189599-1.1396-0.228707-1.18367-0.260615-1.23365-0.284149-1.28767-0.30954-1.34462-0.322175-1.40643-0.321168-1.46877M1.62085-0.675854C1.60384-0.908476 1.56232-1.10758 1.49378-1.27117 1.43586-1.41619 1.36521-1.55581 1.28267-1.68838 1.44651-1.88569 1.61412-2.07983 1.78543-2.27069L1.23265-2.27069C1.19525-2.22792 1.15872-2.18438 1.12309-2.14012 1.08607-2.0946 1.05005-2.05157 1.01303-2.00905 0.906534-2.10725 0.782925-2.18508 0.648339-2.23867 0.501072-2.2959 0.344073-2.32394 0.186097-2.32121 0.0365191-2.32121-0.0975511-2.3012-0.217114-2.26168-0.336676-2.22266-0.437229-2.16663-0.519272-2.0936-0.60221-2.02198-0.66788-1.93254-0.711372-1.83196-0.756086-1.72507-0.778387-1.61014-0.776907-1.49428-0.776907-1.29218-0.715875-1.12259-0.595312-0.986016-0.473748-0.849445-0.317666-0.738386-0.126566-0.65034-0.204406-0.556046-0.274821-0.455861-0.337177-0.350684-0.400085-0.244646-0.432461-0.123283-0.430725 1.24042e-08-0.430725 0.11556-0.409714 0.216113-0.369193 0.303659-0.328172 0.390705-0.272643 0.463743-0.202106 0.523274-0.132069 0.579303-0.0490257 0.621825 0.0465244 0.652341 0.142575 0.680856 0.244628 0.695864 0.355186 0.695864 0.452737 0.695864 0.546786 0.681857 0.637334 0.654342 0.722918 0.628134 0.802955 0.586422 0.873457 0.531278 0.940993 0.475749 0.995021 0.405712 1.03454 0.323169 1.07356 0.239625 1.09307 0.142074 1.09307 0.0295154 1.09307-0.0605317 1.07456-0.144075 1.03854-0.221116 1.00234-0.298171 0.954039-0.368936 0.895469-0.430725 0.835868-0.49562 0.768492-0.552914 0.694864-0.601315 0.619824-0.651341 0.545786-0.692362 0.472747-0.72638L1.00853-1.37572C1.05705-1.28867 1.09257-1.18712 1.11658-1.07306 1.1406-0.956501 1.15811-0.824932 1.16911-0.675854Z" fill="#656263" fill-rule="nonzero" fill-opacity="1" transform="matrix(1.01547 0 0 -1 1138.1 469.666)"/><path d="M0 0C-0.127067 0.0455238-0.235123 0.0785411-0.32467 0.101553-0.482777 0.139842-0.647014 0.145629-0.807423 0.118562-0.870265 0.108161-0.931162 0.0882557-0.988017 0.0595312-1.04124 0.0331488-1.08791-0.00479517-1.12459-0.051527-1.16096-0.101371-1.17963-0.161945-1.17762-0.223617-1.17773-0.27922-1.16002-0.333395-1.12709-0.378198-1.09307-0.423722-1.04855-0.467245-0.992019-0.506265-0.930052-0.550393-0.863662-0.587948-0.793916-0.618324-0.618609-0.693863-0.447294-0.778352-0.280647-0.871456-0.192101-0.919982-0.113559-0.978512-0.0425223-1.04605 0.0259947-1.11439 0.0826342-1.19369 0.125065-1.28067 0.167588-1.36922 0.189599-1.47327 0.189599-1.59083 0.189599-1.75142 0.157582-1.88699 0.0925484-1.99855 0.0275144-2.1096-0.0575301-2.19965-0.164086-2.27069-0.280542-2.34329-0.408655-2.39524-0.542784-2.42427-0.688896-2.45714-0.838254-2.47341-0.988017-2.47279-1.09457-2.47279-1.20563-2.45879-1.32119-2.43027-1.43625-2.40276-1.55031-2.37024-1.66287-2.33322L-1.60384-1.9075C-1.50036-1.94863-1.39464-1.98388-1.28717-2.01305-1.22514-2.03006-1.16461-2.04357-1.10358-2.05458-1.04305-2.06608-0.986516-2.07258-0.932488-2.07258-0.864953-2.07258-0.793916-2.06408-0.717376-2.04907-0.641836-2.03306-0.570799-2.00705-0.506265-1.97053-0.442603-1.93763-0.387196-1.89077-0.34418-1.83346-0.298504-1.77035-0.275419-1.69369-0.278646-1.61585-0.277714-1.55208-0.296783-1.48962-0.333174-1.43725-0.371668-1.38262-0.418811-1.33463-0.472747-1.29518-0.533154-1.25123-0.597653-1.2132-0.665348-1.18162-0.737386-1.1481-0.807423-1.11408-0.877459-1.08007-0.967506-1.03804-1.05955-0.992019-1.1526-0.942493-1.24266-0.895504-1.32609-0.836798-1.40073-0.767902-1.47274-0.704624-1.53361-0.62971-1.58083-0.546286-1.62825-0.45904-1.65205-0.360914-1.64986-0.261637-1.64986-0.132569-1.62335-0.0170089-1.56982 0.0825432-1.51629 0.182095-1.44326 0.265639-1.35071 0.333675-1.26016 0.40121-1.1541 0.452237-1.02954 0.486255-0.905974 0.518772-0.773405 0.53578-0.632831 0.53578-0.531278 0.53578-0.417719 0.527276-0.291653 0.510767-0.164086 0.494759-0.0435228 0.466244 0.0720377 0.426723Z" fill="#656263" fill-rule="nonzero" fill-opacity="1" transform="matrix(1.01547 0 0 -1 1145.13 469.515)"/><path d="M0 0 1.08407 0C1.11558 0 1.1536 0.00100052 1.20063 0.00200105 1.24715 0.00400209 1.28567 0.00750393 1.31669 0.0125065L1.31669-0.413216C1.17261-0.404712 1.04355-0.400209 0.927986-0.400209L-0.472747-0.400209C-0.467245-0.335676-0.463242-0.261637-0.462242-0.179094-0.460741-0.0965505-0.460241-0.0215113-0.460241 0.0465244L-0.460241 2.14012C-0.459178 2.26424-0.464856 2.38831-0.47725 2.51181L1.07606 2.51181C1.10408 2.51181 1.1411 2.51181 1.18562 2.51382 1.23064 2.51482 1.26816 2.51832 1.29968 2.52432L1.29968 2.0976C1.23362 2.10349 1.16738 2.10716 1.10108 2.1086 1.02254 2.1096 0.953499 2.1106 0.894468 2.1106L0 2.1106 0 1.30868 0.975511 1.30868C1.00303 1.30868 1.03954 1.30868 1.08207 1.31119 1.12659 1.31169 1.16311 1.31519 1.19463 1.32169L1.19463 0.894968C1.05355 0.903473 0.926485 0.907475 0.814927 0.907475L0 0.907475Z" fill="#656263" fill-rule="nonzero" fill-opacity="1" transform="matrix(1.01547 0 0 -1 1147.23 471.536)"/><path d="M0 0C-0.0978167 0.0612996-0.202616 0.110676-0.312163 0.147077-0.550358 0.220424-0.806842 0.206953-1.03604 0.109057-1.16024 0.0556126-1.27174-0.0234914-1.36321-0.123064-1.4548-0.224049-1.52507-0.342472-1.56982-0.471247-1.61888-0.610014-1.64326-0.756296-1.64186-0.903473-1.64186-1.05605-1.61935-1.19913-1.57382-1.3347-1.5293-1.46927-1.46377-1.58633-1.37622-1.68488-1.28867-1.78543-1.18112-1.86598-1.05305-1.92551-0.924984-1.98454-0.776907-2.01405-0.607818-2.01405-0.506765-2.01405-0.395707-1.99955-0.276645-1.97003-0.156582-1.94002-0.0465244-1.89249 0.0550288-1.82796L0.0760398-2.2917C-0.0420492-2.34414-0.167346-2.37854-0.295655-2.39375-0.406047-2.40718-0.517126-2.4142-0.628329-2.41476-0.845943-2.41476-1.04505-2.37875-1.22814-2.30771-1.40431-2.23982-1.56395-2.1351-1.69639-2.00055-1.82896-1.87148-1.93151-1.7149-2.00455-1.5283-2.07759-1.3432-2.11461-1.13459-2.11461-0.903473-2.11461-0.684358-2.08059-0.482753-2.01355-0.298656-1.88553 0.061156-1.60695 0.347235-1.25065 0.484754-1.05204 0.560353-0.84082 0.597368-0.628329 0.593811-0.510767 0.593811-0.400209 0.585306-0.297656 0.568798-0.195102 0.552789-0.0830435 0.51577 0.0380199 0.45924Z" fill="#656263" fill-rule="nonzero" fill-opacity="1" transform="matrix(1.01547 0 0 -1 1152.05 469.573)"/><path d="M0 0C0.0166688-0.103174 0.0548477-0.201689 0.112059-0.289151 0.16108-0.3678 0.232026-0.430399 0.316166-0.469246 0.402211-0.509767 0.511768-0.530778 0.643337-0.530778 0.770403-0.530778 0.876459-0.510767 0.961503-0.471247 1.04805-0.432226 1.11708-0.374196 1.17061-0.297656 1.22214-0.222617 1.25766-0.126066 1.28117-0.0105055 1.30318 0.103554 1.31419 0.238125 1.31419 0.389704L1.31419 1.57983C1.31419 1.65287 1.31369 1.7284 1.31219 1.80544 1.31093 1.88106 1.30759 1.95663 1.30218 2.03206L1.78644 2.03206C1.78137 1.94811 1.77887 1.86403 1.77893 1.77993L1.77893 0.326171C1.77893-0.093549 1.68288-0.406713 1.48928-0.616323 1.29718-0.825932 1.01503-0.930987 0.643337-0.930987 0.269641-0.930987-0.0135071-0.825932-0.207108-0.616323-0.399709-0.406713-0.49626-0.093549-0.49626 0.326171L-0.49626 1.57983-0.497761 1.80544C-0.499261 1.88299-0.502763 1.95802-0.508266 2.03206L-0.023012 2.03206C-0.0287343 1.91676-0.0317367 1.80133-0.0320168 1.68588L-0.0320168 0.389704C-0.0320168 0.243628-0.021011 0.113059 0 0" fill="#656263" fill-rule="nonzero" fill-opacity="1" transform="matrix(1.01547 0 0 -1 1154.06 471.057)"/><path d="M0 0 0.426723 0C0.513269 0 0.593811 0.00850445 0.667349 0.0275144 0.740388 0.0455238 0.80292 0.0740388 0.856448 0.113059 0.909136 0.149216 0.952649 0.197182 0.983515 0.253132 1.0159 0.313868 1.0321 0.381922 1.03054 0.450736 1.03054 0.578303 0.983515 0.675854 0.892467 0.742389 0.801419 0.809924 0.660346 0.843942 0.468745 0.843942L0 0.843942ZM-0.464743 0.864953C-0.464743 0.989018-0.468245 1.11308-0.47725 1.23665L0.346681 1.23665C0.492758 1.23665 0.635333 1.22714 0.774405 1.20913 0.904573 1.19319 1.03109 1.1553 1.1486 1.09707 1.25466 1.04104 1.3412 0.961503 1.40574 0.85895 1.46977 0.755896 1.50329 0.620325 1.50329 0.450736 1.50329 0.350684 1.48678 0.261637 1.45626 0.185097 1.42768 0.112628 1.38461 0.0467512 1.3297-0.00850445 1.2759-0.0645648 1.21297-0.111083 1.1436-0.146076 1.07215-0.181447 0.997202-0.209278 0.919982-0.22912 0.976511-0.256634 1.02754-0.291653 1.07456-0.331674 1.12109-0.371695 1.16111-0.427224 1.19513-0.494759 1.29318-0.68836 1.38372-0.884463 1.46677-1.08257 1.54931-1.28117 1.63636-1.47877 1.7259-1.67538L1.19913-1.67538C1.12559-1.50729 1.05405-1.3387 0.986016-1.17111 0.91698-1.00403 0.842941-0.835437 0.7639-0.667349 0.738912-0.612726 0.707145-0.561459 0.66935-0.514769 0.6407-0.481381 0.605442-0.454297 0.565796-0.435228 0.527051-0.418087 0.485531-0.408088 0.443232-0.405712 0.396935-0.402761 0.350549-0.401426 0.304159-0.40171L0-0.40171 0-1.41374C3.80666e-05-1.50102 0.00287434-1.58828 0.00850445-1.67538L-0.47725-1.67538C-0.471247-1.60784-0.467745-1.5358-0.466744-1.45626-0.464743-1.37772-0.464743-1.30168-0.464743-1.22864Z" fill="#656263" fill-rule="nonzero" fill-opacity="1" transform="matrix(1.01547 0 0 -1 1157.98 470.262)"/><path d="M0 0C0.00150079-0.0645338 0.00350183-0.113059 0.0065034-0.147077L-0.487255-0.147077C-0.481252-0.0795416-0.47775-0.00750393-0.47675 0.0720377-0.474748 0.150579-0.474248 0.226619-0.474248 0.299657L-0.474248 2.31721C-0.474248 2.38825-0.474748 2.46129-0.47675 2.53883-0.477684 2.6143-0.481188 2.68972-0.487255 2.76495L0.0065034 2.76495C0.0065034 2.74744 0.0065034 2.72493 0.00500262 2.69741 0.00258746 2.6693 0.00141904 2.64109 0.00150079 2.61287-0.000866033 2.58325-0.00203426 2.55354-0.00200105 2.52382L-0.00200105 0.156582C-0.00200105 0.116561-0.00100052 0.0645338 0 0" fill="#656263" fill-rule="nonzero" fill-opacity="1" transform="matrix(1.01547 0 0 -1 1161.55 471.789)"/><path d="M0 0C0-0.0700367 0-0.138573 0.00200105-0.204107 0.00250131-0.269641 0.0065034-0.351684 0.0120063-0.446734L-0.489756-0.446734C-0.480752-0.385202-0.47675-0.313164-0.475249-0.231621-0.473248-0.150079-0.472747-0.0730382-0.472747 0L-0.472747 2.06408-1.10158 2.06408C-1.1416 2.06408-1.18612 2.06308-1.23715 2.06208-1.28362 2.06035-1.33002 2.05685-1.37622 2.05157L-1.37622 2.4783C-1.35308 2.47429-1.32967 2.47211-1.30618 2.47179-1.27667 2.46979-1.24665 2.46979-1.21564 2.46979-1.18462 2.46679-1.1546 2.46529-1.12459 2.46529L0.708871 2.46529C0.739887 2.46779 0.771404 2.46979 0.80342 2.46979 0.835312 2.46933 0.867169 2.47217 0.89847 2.4783L0.89847 2.05157C0.831435 2.05658 0.761899 2.06008 0.691362 2.06208 0.621825 2.06308 0.555291 2.06408 0.493258 2.06408L0 2.06408Z" fill="#656263" fill-rule="nonzero" fill-opacity="1" transform="matrix(1.01547 0 0 -1 1164.3 471.49)"/><path d="M0 0-1.07556 1.69339-0.539783 1.69339 0.240126 0.422721 1.00903 1.69339 1.54481 1.69339 0.472247 0.00550288 0.472247-0.772404C0.472247-0.841941 0.473248-0.910977 0.474748-0.976511 0.475749-1.04205 0.479751-1.12359 0.486255-1.21914L-0.0170089-1.21914C-0.00800419-1.12359-0.00350183-1.04205-0.00200105-0.976511-0.000500262-0.910977 -1.73563e-18-0.841941 -1.73563e-18-0.772404Z" fill="#656263" fill-rule="nonzero" fill-opacity="1" transform="matrix(1.01547 0 0 -1 1167.35 470.718)"/><path d="M0 0-0.455739 1.3377-0.920482 0ZM0.13457-0.388703-1.05155-0.388703-1.30418-1.10958-1.79394-1.10958-0.738887 1.80244-0.173591 1.80244 0.882462-1.10958 0.391705-1.10958Z" fill="#656263" fill-rule="nonzero" fill-opacity="1" transform="matrix(1.01547 0 0 -1 1173.96 470.827)"/><path d="M0 0C-0.118012 0.0798868-0.24806 0.140351-0.385202 0.179094-0.523794 0.217682-0.667064 0.236875-0.810924 0.236124-0.971008 0.236124-1.11658 0.20961-1.24765 0.157582-1.37469 0.10794-1.49015 0.0326723-1.58683-0.0635333-1.68432-0.163913-1.76009-0.283284-1.80945-0.414217-1.86275-0.557037-1.88904-0.708521-1.88699-0.860951-1.88699-1.01903-1.86147-1.16611-1.81145-1.30268-1.76384-1.4346-1.68863-1.55484-1.59083-1.65537-1.49878-1.75342-1.38472-1.83096-1.24765-1.88699-1.11108-1.94302-0.958502-1.97153-0.789413-1.97153-0.724879-1.97153-0.655343-1.97003-0.580304-1.96453-0.506265-1.96003-0.437729-1.94752-0.375196-1.92551L-0.375196-1.01753-0.72588-1.01753C-0.7649-1.01753-0.810924-1.01753-0.860951-1.02003-0.907985-1.02051-0.95494-1.02402-1.00152-1.03054L-1.00152-0.61232C-0.952499-0.618324-0.902973-0.621825-0.850945-0.622826-0.799418-0.624827-0.751393-0.624827-0.709371-0.624827L0.0965505-0.624827C0.093549-0.678855 0.0920482-0.735885 0.0900471-0.798418 0.0890466-0.85995 0.0880461-0.91798 0.0880461-0.971008L0.0880461-2.23767C-0.0306257-2.27603-0.151812-2.30612-0.274644-2.32772-0.458769-2.36-0.645523-2.37491-0.832436-2.37224-1.05055-2.37224-1.25466-2.33722-1.44125-2.26619-1.6222-2.20026-1.78734-2.09716-1.92601-1.96353-2.05958-1.83296-2.16613-1.67638-2.24317-1.49028-2.32172-1.30468-2.35974-1.09507-2.35974-0.860951-2.35974-0.639335-2.32472-0.436228-2.25218-0.252132-2.18064-0.0675353-2.07709 0.0910477-1.94152 0.223617-1.80945 0.352685-1.64936 0.454238-1.46076 0.527276-1.27117 0.600314-1.06206 0.636833-0.832436 0.636833-0.682857 0.636833-0.540283 0.625828-0.405212 0.603816-0.270642 0.580304-0.122064 0.541283 0.0370194 0.485254Z" fill="#656263" fill-rule="nonzero" fill-opacity="1" transform="matrix(1.01547 0 0 -1 1178.13 469.616)"/><path d="M0 0 1.08457 0C1.11658 0 1.1551 0.00100052 1.20163 0.00200105 1.24765 0.00400209 1.28667 0.00750393 1.31719 0.0125065L1.31719-0.413216C1.17361-0.404712 1.04555-0.400209 0.928986-0.400209L-0.471747-0.400209C-0.466244-0.335676-0.462242-0.261637-0.461241-0.179094-0.45924-0.0965505-0.45924-0.0215113-0.45924 0.0465244L-0.45924 2.14012C-0.458928 2.26421-0.464437 2.38825-0.475749 2.51181L1.07656 2.51181C1.10508 2.51181 1.1421 2.51181 1.18712 2.51382 1.23114 2.51482 1.26916 2.51832 1.30068 2.52432L1.30068 2.0976C1.23462 2.10347 1.16838 2.10714 1.10208 2.1086 1.02404 2.1096 0.9555 2.1106 0.894968 2.1106L0 2.1106 0 1.30868 0.976011 1.30868C1.04924 1.30855 1.12242 1.3129 1.19513 1.32169L1.19513 0.894968C1.05405 0.903473 0.926985 0.907475 0.815927 0.907475L0 0.907475Z" fill="#656263" fill-rule="nonzero" fill-opacity="1" transform="matrix(1.01547 0 0 -1 1180.32 471.536)"/><path d="M0 0-0.577302 1.06106C-0.582495 1.09032-0.59319 1.11833-0.608819 1.1436-0.625582 1.17585-0.643097 1.20771-0.661346 1.23915L-0.661346-0.718876C-0.661346-0.769903-0.660346-0.825932-0.659345-0.888465-0.658345-0.950998-0.656344-1.00603-0.653842-1.05705L-1.1381-1.05705C-1.13359-0.989518-1.12959-0.91698-1.12759-0.837939-1.12659-0.759398-1.12659-0.683358-1.12659-0.610319L-1.12659 1.40724C-1.12659 1.47827-1.12659 1.55131-1.12759 1.62885-1.12959 1.70589-1.13359 1.78093-1.1381 1.85497L-0.513769 1.85497 0.587307-0.196103C0.601815-0.228119 0.616323-0.260636 0.634332-0.295655L0.683858-0.399209 0.683858 1.40724C0.683858 1.47827 0.683858 1.55131 0.681857 1.62885 0.680001 1.70428 0.676829 1.77966 0.672352 1.85497L1.15711 1.85497C1.15135 1.77188 1.14835 1.68863 1.1481 1.60534L1.1481-0.924484C1.1481-0.965005 1.1521-1.00953 1.15711-1.05705L0.578303-1.05705C0.385202-0.703368 0.192601-0.350684 0 0" fill="#656263" fill-rule="nonzero" fill-opacity="1" transform="matrix(1.01547 0 0 -1 1184.29 470.88)"/><path d="M0 0C-0.0980893 0.061124-0.203033 0.110489-0.312664 0.147077-0.550538 0.220266-0.806657 0.206796-1.03554 0.109057-1.15997 0.0557537-1.27166-0.0233653-1.36321-0.123064-1.45461-0.224279-1.525-0.342626-1.57032-0.471247-1.61858-0.610189-1.64261-0.756391-1.64136-0.903473-1.64136-1.05605-1.61985-1.19913-1.57382-1.3347-1.49043-1.59576-1.30158-1.81-1.05305-1.92551-0.912868-1.98712-0.760908-2.01734-0.607818-2.01405-0.506265-2.01405-0.395707-1.99955-0.276645-1.97003-0.157082-1.94002-0.0460241-1.89249 0.0555291-1.82796L0.0760398-2.2917C-0.042222-2.34414-0.167684-2.37855-0.296155-2.39375-0.406378-2.4072-0.517291-2.41421-0.628329-2.41476-0.844942-2.41476-1.04555-2.37875-1.22814-2.30771-1.40455-2.23971-1.56449-2.13501-1.69739-2.00055-1.83232-1.86677-1.9372-1.70578-2.00505-1.5283-2.07709-1.3432-2.11461-1.13459-2.11461-0.903473-2.11461-0.684358-2.08109-0.482753-2.01355-0.298656-1.94552-0.11456-1.84747 0.0445233-1.7179 0.176592-1.59083 0.309162-1.43525 0.411716-1.25166 0.484754-1.06706 0.557792-0.85995 0.593811-0.628329 0.593811-0.510767 0.593811-0.399709 0.585306-0.297156 0.568798-0.180866 0.548097-0.0680456 0.511223 0.0380199 0.45924Z" fill="#656263" fill-rule="nonzero" fill-opacity="1" transform="matrix(1.01547 0 0 -1 1189.1 469.573)"/><path d="M0 0-1.07656 1.69339-0.540283 1.69339 0.239625 0.422721 1.00853 1.69339 1.54381 1.69339 0.471747 0.00550288 0.471747-0.772404C0.471747-0.841941 0.472747-0.910977 0.474748-0.976511 0.475749-1.04205 0.478751-1.12359 0.484754-1.21914L-0.0175092-1.21914C-0.00387439-1.07064 0.00197001-0.921517-7.45445e-11-0.772404Z" fill="#656263" fill-rule="nonzero" fill-opacity="1" transform="matrix(1.01547 0 0 -1 1191.39 470.718)"/><path d="M0 0C1.16461 0 2.1056-0.743389 2.1056-1.66037 2.1056-2.57735 1.16461-3.31974 0-3.31974-1.16261-3.31974-2.1046-2.57735-2.1046-1.66037-2.1046-0.743389-1.16261 0 0 0M0-4.50236C2.31371-4.50236 4.18669-3.23019 4.18669-1.66037 4.18669-0.0905474 2.31371 1.18212 0 1.18212-2.31171 1.18212-4.18569-0.0905474-4.18569-1.66037-4.18569-3.23019-2.31171-4.50236 0-4.50236" fill="#173A79" fill-rule="nonzero" fill-opacity="1" transform="matrix(1.01547 0 0 -1 1185.75 453.262)"/><path d="M0 0C0.799919-1.20063 2.56034-2.4803 4.06513-3.00707L4.768-1.59934C2.96055-0.720377 0.992019 0.959502 0.992019 3.12013L0.992019 3.80799 4.11165 3.80799 4.11165 5.18321-4.17418 5.18321-4.17418 3.80799-0.975511 3.80799-0.975511 3.10312C-0.975511 0.767902-2.95955-0.575801-4.7825-1.58433L-4.04712-3.02358C-2.79947-2.52732-0.862952-1.26366 0 0" fill="#173A79" fill-rule="nonzero" fill-opacity="1" transform="matrix(1.01547 0 0 -1 1158.78 457.704)"/><path d="M0 0C0 1.80745 7.32884 1.80745 7.32884 0 7.32884-1.79194 0-1.82395 0 0M-2.12661-0.0165086C-2.12661-3.6309 9.45495-3.6309 9.45495-0.0165086 9.45495 3.69543-2.12661 3.67993-2.12661-0.0165086" fill="#173A79" fill-rule="nonzero" fill-opacity="1" transform="matrix(1.01547 0 0 -1 1170.24 463.895)"/><path d="M0 0C0 1.60684 0.852446 2.91052 1.9035 2.91052 2.95505 2.91052 3.80649 1.60684 3.80649 0 3.80649-1.60734 2.95505-2.91052 1.9035-2.91052 0.852446-2.91052 0-1.60734 0 0M5.81304 0C5.81304 2.25218 4.06313 4.07663 1.9035 4.07663-0.255634 4.07663-2.00705 2.25218-2.00705 0-2.00705-2.25218-0.255634-4.07763 1.9035-4.07763 4.06313-4.07763 5.81304-2.25218 5.81304 0" fill="#173A79" fill-rule="nonzero" fill-opacity="1" transform="matrix(1.01547 0 0 -1 1115.57 456.286)"/><path d="M0 0C2.0961 0 3.79499-0.470746 3.79499-1.05155 3.79499-1.63185 2.0961-2.1031 0-2.1031-2.0946-2.1031-3.79449-1.63185-3.79449-1.05155-3.79449-0.470746-2.0946 0 0 0M-5.84656-1.05155C-5.84656-2.42377-3.22869-3.53435 0-3.53435 3.23019-3.53435 5.84706-2.42377 5.84706-1.05155 5.84706-0.315665 5.09267 0.34468 3.89654 0.799418L5.76102 0.799418 5.76102 2.14362 1.05555 2.14362 1.05555 3.0556-1.05555 3.0556-1.05555 2.14362-5.76002 2.14362-5.76002 0.799418-3.89554 0.799418C-5.09317 0.34468-5.84656-0.315665-5.84656-1.05155" fill="#173A79" fill-rule="nonzero" fill-opacity="1" transform="matrix(1.01547 0 0 -1 1173.96 454.968)"/><path d="M0 0C1.05105 0 1.9045-1.20863 1.9045-2.69841 1.9045-4.18969 1.05105-5.39783 0-5.39783-1.05205-5.39783-1.9025-4.18969-1.9025-2.69841-1.9025-1.20863-1.05205 0 0 0M0-6.60846C2.15954-6.60846 3.91027-4.85795 3.91055-2.69841 3.9108-1.76725 3.5769-0.866914 2.96955-0.161084L3.84701-0.161084 3.84701 1.21464 1.06256 1.21464 1.06256 2.14362-1.06406 2.14362-1.06406 1.21464-3.83251 1.21464-3.83251-0.161084-2.97005-0.161084C-3.57584-0.867659-3.90874-1.76771-3.90855-2.69841-3.90882-4.8574-2.15899-6.60791 1.37401e-07-6.60846" fill="#173A79" fill-rule="nonzero" fill-opacity="1" transform="matrix(1.01547 0 0 -1 1090.61 454.04)"/><path d="M0 0-2.06408 0C-2.19215-2.25568-5.37531-3.69493-7.34484-4.2077L-6.64048-5.66246C-4.785-5.19872-2.44828-4.22321-1.11959-2.8635-1.11959-2.8635-1.07906-2.81047-1.03054-2.81047-0.981514-2.81047-0.944494-2.8635-0.944494-2.8635 0.240626-4.23922 2.81597-5.21473 4.57539-5.66246L5.27926-4.2077C3.31223-3.69493 0.127567-2.25568 0 0" fill="#173A79" fill-rule="nonzero" fill-opacity="1" transform="matrix(1.01547 0 0 -1 1148.24 460.808)"/><path d="M0 0-1.40774 0-1.40774-7.2508C-1.40774-7.56596-1.1516-7.82209-0.835437-7.82209L0.544285-7.82209 0.544285-0.541784C0.530553-0.247481 0.294363-0.0123768 2.95794e-08 2.7671e-08" fill="#173A79" fill-rule="nonzero" fill-opacity="1" transform="matrix(1.01547 0 0 -1 1152.17 452.217)"/><path d="M0 0-0.00100052 0.00150079-0.981514 0.00150079-0.981514 0.861451-2.93354 0.861451-2.93354-6.97465-2.93304-6.97365C-2.93304-7.28731-2.6804-7.54045-2.36924-7.54445L-0.981514-7.54445-0.981514-1.55982 0.569298-1.55982 0.569298-0.55329C0.560108-0.245372 0.308054-0.000403389 5.72505e-09 2.67169e-08" fill="#173A79" fill-rule="nonzero" fill-opacity="1" transform="matrix(1.01547 0 0 -1 1099.23 453.086)"/><path d="M0 0C-0.310375 0.00184856-0.562599 0.250965-0.568297 0.561294L-0.568297 2.24167C-0.576342 2.53743-0.809229 2.77792-1.10458 2.79546L-2.53633 2.79546-2.53633 0.506765C-2.53633-0.676854-1.55932-1.65186-0.359688-1.65186L8.07123-1.65186 8.07123 0Z" fill="#173A79" fill-rule="nonzero" fill-opacity="1" transform="matrix(1.01547 0 0 -1 1090.2 464.514)"/><path d="M0 0C-0.314266 0.00165248-0.568077 0.257029-0.567797 0.571299L-0.569798 0.570799-0.569798 2.24367C-0.578818 2.5383-0.810864 2.7775-1.10508 2.79546L-2.53833 2.79546-2.53833 0.506765C-2.53833-0.676854-1.56282-1.65186-0.36269-1.65186L8.06922-1.65186 8.06922 0Z" fill="#173A79" fill-rule="nonzero" fill-opacity="1" transform="matrix(1.01547 0 0 -1 1117.4 464.514)"/><path d="M0 0C-0.314657 0.00110298-0.569078 0.25664-0.568798 0.571299L-0.569798 0.570799-0.569798 2.22617-0.570298 2.22617C-0.570338 2.52847-0.806267 2.77822-1.10808 2.79546L-2.53833 2.79546-2.53833 0.506765C-2.53833-0.676854-1.56282-1.65186-0.361689-1.65186L8.06972-1.65186 8.06972 0Z" fill="#173A79" fill-rule="nonzero" fill-opacity="1" transform="matrix(1.01547 0 0 -1 1158.04 464.514)"/><path d="M0 0C-0.314381 0.00137839-0.568352 0.256916-0.567797 0.571299L-0.568798 0.570799-0.568798 2.22717-0.570799 2.22617C-0.570824 2.52829-0.806462 2.77797-1.10808 2.79546L-2.53533 2.79546-2.53533 0.506765C-2.53533-0.676854-1.56032-1.65186-0.361689-1.65186L8.38239-1.65186 8.38239 0Z" fill="#173A79" fill-rule="nonzero" fill-opacity="1" transform="matrix(1.01547 0 0 -1 1184.49 464.514)"/><path d="M0 0C0 0.316166-0.256134 0.5723-0.5728 0.5723L-0.5733 0.5733-12.5746 0.5733-12.5746-0.313664C-12.5694-0.624167-12.3163-0.873227-12.0058-0.873457L0-0.873457 0 0.00150079Z" fill="#173A79" fill-rule="nonzero" fill-opacity="1" transform="matrix(1.01547 0 0 -1 1180.34 459.756)"/><path d="M0 0 0 0.816427C-0.0067881 1.12674-0.259907 1.37498-0.570298 1.37572L-1.37472 1.37572C-0.909976 2.52732-0.926485 3.74296-0.926485 4.9596L-0.926485 6.26078-0.927485 6.25928C-0.927485 6.53542-1.12459 6.76554-1.38422 6.81907L-1.38823 6.81957C-1.42494 6.82702-1.46232 6.83073-1.49978 6.83058L-1.49978 6.83108-11.3354 6.83108-11.3354 5.45586-2.87901 5.45586-2.87901 3.40778C-2.87901 2.60736-2.89401 2.23967-3.29422 1.37572L-12.1188 1.37572-12.1188 0.569298-12.1173 0.569798C-12.1172 0.260984-11.8713 0.0083976-11.5626 2.91023e-08L-7.0717 0-7.0717-1.84046-11.6951-1.84046-11.6951-2.65839C-11.6821-2.95355-11.447-3.18867-11.1513-3.20118L-3.18417-3.20118-3.18217-3.20268C-2.8675-3.20268-2.61087-3.45881-2.61087-3.77398L-2.60736-3.77297-2.60736-6.83158-0.639835-6.83158-0.639835-2.41326C-0.639835-2.0976-0.895969-1.84146-1.21113-1.84146L-1.21213-1.84046-5.11968-1.84046-5.11968 0Z" fill="#173A79" fill-rule="nonzero" fill-opacity="1" transform="matrix(1.01547 0 0 -1 1112.54 459.352)"/><path d="M0 0-1.40524 0-1.40524-7.86061C-1.40413-8.17518-1.14898-8.42966-0.834437-8.42991L-0.833436-8.43291 0.546786-8.43291 0.546786-0.559293C0.541218-0.257554 0.301536-0.0123908 2.71939e-08-1.52668e-08" fill="#173A79" fill-rule="nonzero" fill-opacity="1" transform="matrix(1.01547 0 0 -1 1165.68 452.217)"/><path d="M0 0-1.40774 0-1.40774-7.85961-1.40724-7.85911C-1.40724-8.17528-1.1521-8.43141-0.836938-8.43141L-0.835437-8.43291 0.543785-8.43291 0.543785-0.544785C0.532529-0.249081 0.295683-0.0118001 6.20215e-09 6.6792e-09" fill="#173A79" fill-rule="nonzero" fill-opacity="1" transform="matrix(1.01547 0 0 -1 1124.88 452.217)"/><path d="M0 0C0-0.315165 0.256134-0.571299 0.571799-0.571299L1.95202-0.571299 1.95202 6.6835 1.94802 6.6815C1.94774 6.98711 1.70659 7.23819 1.40123 7.2508L0 7.2508 0 6.39985-1.93001 6.39985-1.93001 5.39432-1.92901 5.39532C-1.92901 5.07966-1.67338 4.82302-1.35771 4.82302L-1.35671 4.82052 0 4.82052Z" fill="#173A79" fill-rule="nonzero" fill-opacity="1" transform="matrix(1.01547 0 0 -1 1147.59 459.468)"/><path d="M0 0-2.14462 0-2.14462-1.00953C-2.14462-1.32469-1.88849-1.58133-1.57332-1.58133L0.0360189-1.58133 0.0360189-2.30221 1.93451-2.30221 1.93451 7.80609C1.92644 8.1125 1.67722 8.35752 1.37072 8.36038L0 8.36038Z" fill="#173A79" fill-rule="nonzero" fill-opacity="1" transform="matrix(1.01547 0 0 -1 1190.87 460.794)"/><path d="M0 0C-0.00866549 0.302215-0.252053 0.544945-0.55429 0.552789L-0.55429 0.55429-6.35783 0.55429-6.35783 0.55479C-6.66549 0.55479-6.91462 0.797918-6.92663 1.10208L-6.92663 5.01813-0.895969 5.01813-0.895969 5.84106C-0.905404 6.14362-1.14918 6.38629-1.45176 6.39435L-6.35683 6.39435-6.35783 6.39685C-6.66549 6.39685-6.91462 6.64048-6.92663 6.94463L-6.92663 9.9302-0.863952 9.9302-0.863952 10.7326C-0.863952 11.0478-1.12059 11.3039-1.43525 11.3039L-1.43625 11.3054-8.89616 11.3054-8.89616 1.35371C-8.91116 0.170589-7.93615-0.804921-6.73603-0.804921L0.00100052-0.804921 0.00100052 0Z" fill="#173A79" fill-rule="nonzero" fill-opacity="1" transform="matrix(1.01547 0 0 -1 1136.11 463.826)"/><path d="M0 0-3.46381 0-3.46531 0.00300157C-3.78048 0.00300157-4.03711 0.259636-4.03711 0.575301L-4.04061 0.5733-4.04061 6.14322-5.99114 6.14322-5.97463 0.351684C-5.97268-0.601535-5.20042-1.37379-4.24722-1.37572L0.551789-1.37572 0.551789-0.53478C0.534505-0.24034 0.294837-0.00806107 2.24231e-08-2.86252e-09" fill="#173A79" fill-rule="nonzero" fill-opacity="1" transform="matrix(1.01547 0 0 -1 1146.72 458.36)"/><path d="M0 0C-0.0100459 0.297225-0.246251 0.537126-0.543284 0.551789L-9.33889 0.551789-9.33889-0.258635C-9.33504-0.571224-9.0807-0.822681-8.76809-0.822931L-5.64445-0.822931-5.64445-3.89504-3.69343-3.89504-3.69343-0.822931 0.00100052-0.822931 0.00100052 0Z" fill="#173A79" fill-rule="nonzero" fill-opacity="1" transform="matrix(1.01547 0 0 -1 1190.56 459.056)"/><path d="M0 0-1.41924 0-1.41924-2.18564-3.37176-2.18564-3.37176-3.01908C-3.35685-3.32228-3.10704-3.56066-2.80347-3.56136L-1.41924-3.56136-1.41924-13.391C-1.41271-13.7007-1.15973-13.9483-0.849945-13.9483L-0.849945-13.9493 0.547787-13.9493 0.547787-0.564295C0.54482-0.260242 0.303832-0.0119882 1.43126e-08-1.04959e-08" fill="#173A79" fill-rule="nonzero" fill-opacity="1" transform="matrix(1.01547 0 0 -1 1138.43 452.217)"/><path d="M0 0 2.58035 3.31774 4.46284 3.31774 1.65086 0 4.32927-3.40578 2.44078-3.40578ZM-0.0480251-3.40578-1.49028-3.40578-1.49028 3.31774-0.0480251 3.31774Z" fill="#173A79" fill-rule="nonzero" fill-opacity="1" transform="matrix(1.01547 0 0 -1 1050.51 462.774)"/><path d="M32.3504 342.011 33.7937 342.011 33.7937 335.288 32.3504 335.288Z" fill="#173A79" fill-rule="nonzero" fill-opacity="1" transform="matrix(1.01547 0 0 -1 1022.91 801.467)"/><path d="M0 0 0 1.19062 3.07361 1.19062C3.56937 1.19062 3.90004 1.24165 4.06413 1.3412 4.30325 1.48428 4.42131 1.69689 4.42131 1.98454 4.42131 2.31421 4.28274 2.55434 4.0056 2.70742 3.84601 2.79246 3.59338 2.83648 3.2482 2.83648L1.99955 2.83648C1.23865 2.83648 0.691362 2.97506 0.354185 3.2487 0.142455 3.42662-0.0250354 3.65132-0.135071 3.90504-0.254237 4.1696-0.314655 4.45684-0.312163 4.74698-0.312163 5.21823-0.174091 5.64696 0.101053 6.03666 0.370194 6.41336 0.801419 6.63247 1.39423 6.695 1.59584 6.71451 1.89299 6.72352 2.2887 6.72352L5.62845 6.72352 5.62845 5.5334 2.61487 5.5334C2.16613 5.52989 1.86998 5.50938 1.7219 5.47336 1.42124 5.39983 1.27067 5.17021 1.27067 4.79051 1.27067 4.46934 1.39773 4.25122 1.64886 4.14117 1.81945 4.06513 2.0991 4.02811 2.4918 4.02811L3.57237 4.02811C4.12466 4.02811 4.53637 3.98008 4.80752 3.88503 5.28427 3.72395 5.61044 3.4398 5.78753 3.03559 5.93361 2.71042 6.00464 2.36074 6.00464 1.98954 6.00464 1.58083 5.91059 1.21414 5.7235 0.888965 5.46186 0.426723 5.06565 0.15208 4.53687 0.063033 4.28274 0.0205107 3.89554 0 3.38477 0Z" fill="#173A79" fill-rule="nonzero" fill-opacity="1" transform="matrix(1.01547 0 0 -1 1058.59 466.18)"/><path d="M0 0-1.65086 0-4.43632-6.72352-2.75594-6.72352-0.822931-1.61134 1.10258-6.72352 2.78546-6.72352Z" fill="#173A79" fill-rule="nonzero" fill-opacity="1" transform="matrix(1.01547 0 0 -1 1069.42 459.456)"/><path d="M49.1597 346.402 47.6825 345.125C46.8099 344.364 46.7153 343.041 47.4708 342.164L51.7391 337.192C52.494 336.321 54.0533 335.538 55.2044 335.455L57.6767 335.277C58.8283 335.193 59.1535 335.84 58.3991 336.713L54.1298 341.682C54.1043 341.711 54.0843 341.741 54.0613 341.771L50.2938 346.196C50.1302 346.391 49.8946 346.533 49.62 346.533 49.4759 346.533 49.3208 346.494 49.1597 346.402" fill="url(#fill3)" fill-rule="nonzero" transform="matrix(1.01547 0 0 -1 1022.91 801.467)"/><path d="M52.9072 349.646 49.1597 346.402C49.628 346.668 50.0442 346.493 50.2938 346.196L54.0613 341.771C53.3844 342.643 53.4985 343.913 54.3439 344.644L59.5662 349.164C60.4396 349.92 60.212 350.607 59.0604 350.689L56.5881 350.867C56.5086 350.873 56.429 350.876 56.3495 350.876 55.2174 350.876 53.7221 350.35 52.9072 349.646" fill="url(#fill4)" fill-rule="nonzero" transform="matrix(1.01547 0 0 -1 1022.91 801.467)"/><path d="M46.9371 351.75 46.9246 351.764ZM46.7765 349.682 43.1026 346.502C42.4867 345.972 42.6483 345.487 43.4587 345.429L45.1982 345.304C46.0071 345.247 47.1722 345.633 47.7865 346.165L50.663 348.68C50.3719 348.429 49.7065 348.513 49.5064 348.749L46.9371 351.75C47.4556 351.132 47.3843 350.212 46.7765 349.682" fill="url(#fill5)" fill-rule="nonzero" transform="matrix(1.01547 0 0 -1 1022.91 801.467)"/><path d="M43.7469 355.439 46.9246 351.764 49.4714 348.781C49.7801 348.422 50.3719 348.429 50.663 348.68L51.4579 349.344C52.0738 349.878 52.1408 350.81 51.6085 351.427L48.4303 355.1C47.8986 355.714 46.8015 356.264 45.9916 356.322L44.2532 356.448C44.2077 356.451 44.1622 356.453 44.1166 356.453 43.4192 356.453 43.2461 356.016 43.7469 355.439" fill="url(#fill6)" fill-rule="nonzero" transform="matrix(1.01547 0 0 -1 1022.91 801.467)"/></g></g></g></g></g></svg>